<svg height="487pt" viewBox="-3 0 487 487.99704" width="487pt" xmlns="http://www.w3.org/2000/svg"><g fill="#55c9f4"><path d="m336.5 15.996094h-328v32h464v-32zm0 0"/><path d="m24.5 82.476562-16 5.519532h16zm0 0"/><path d="m472.5 87.996094-16-5.519532v5.519532zm0 0"/><path d="m456.5 87.996094v-5.519532l-216-74.480468-116 40-100 34.480468v5.519532zm-200-40"/><path d="m192.5 415.996094v-176h96v176h168v-296h-48v40h-16v80h16v40h-72v-40h24v-80h-24v-40h-192v40h-24v80h24v40h-72v-40h16v-80h-16v-40h-48v296zm144-40h24v-96h32v96h16v40h-72zm-96-224c13.253906 0 24 10.746094 24 24s-10.746094 24-24 24c-13.257812 0-24-10.746094-24-24s10.742188-24 24-24zm-168 224h16v-96h32v96h24v40h-72zm0 0"/><path d="m192.5 415.996094h-168v40h432v-40zm0 0"/><path d="m88.5 159.996094h32v80h-32zm0 0"/><path d="m88.5 279.996094h32v96h-32zm0 0"/><path d="m360.5 159.996094h32v80h-32zm0 0"/><path d="m360.5 279.996094h32v96h-32zm0 0"/></g><path d="m472.5 55.996094c4.417969 0 8-3.582032 8-8v-24c0-4.417969-3.582031-8-8-8h-184c-.058594 0-.105469 0-.160156 0l-45.234375-15.558594c-1.6875-.582031-3.523438-.582031-5.214844 0l-45.230469 15.558594c-.058594 0-.105468 0-.160156 0h-184c-4.417969 0-8 3.582031-8 8v24c0 4.417968 3.582031 8 8 8h8v20.800781l-10.609375 3.664063c-.089844 0-.144531.097656-.230469.136718-.539062.234375-1.046875.53125-1.511718.886719-.394532.21875-.769532.472656-1.121094.753906-.359375.386719-.679688.808594-.953125 1.261719-.308594.378906-.574219.785156-.800781 1.21875-.167969.445312-.292969.910156-.375 1.382812-.167969.535157-.28125 1.085938-.328126 1.648438 0 .09375-.054687.175781-.054687.269531v32c0 4.417969 3.582031 8 8 8h7.984375v319.976563h-8c-4.417969 0-8 3.582031-8 8v24c0 4.417968 3.582031 8 8 8h464c4.417969 0 8-3.582032 8-8v-24c0-4.417969-3.582031-8-8-8h-8v-320h8c4.417969 0 8-3.582032 8-8v-32c0-.09375-.050781-.175782-.058594-.269532-.046875-.5625-.15625-1.113281-.328125-1.648437-.082031-.476563-.207031-.941406-.375-1.394531-.226562-.425782-.496093-.832032-.800781-1.207032-.273438-.449218-.589844-.875-.941406-1.261718-.355469-.28125-.734375-.53125-1.128906-.753906-.46875-.355469-.976563-.65625-1.511719-.894532-.089844 0-.144531-.105468-.234375-.128906l-10.621094-3.640625v-20.800781zm-8-24v8h-104l-25.859375-8zm-224-15.535156 184.261719 63.535156h-368.527344zm-224 15.535156h129.855469l-23.199219 8h-106.65625zm16 24h44.253906l-44.253906 15.265625zm32 72v32c0 4.417968 3.582031 8 8 8h8v64h-8c-4.417969 0-8 3.582031-8 8v40c0 4.417968 3.582031 8 8 8h8v80h-8c-4.417969 0-8 3.582031-8 8v32h-32v-280zm264 0v32c0 4.417968 3.582031 8 8 8h16v64h-16c-4.417969 0-8 3.582031-8 8v40c0 4.417968 3.582031 8 8 8h16v80h-16c-4.417969 0-8 3.582031-8 8v32h-32v-168c0-4.417969-3.582031-8-8-8h-96c-4.417969 0-8 3.582031-8 8v168h-32v-32c0-4.417969-3.582031-8-8-8h-16v-80h16c4.417969 0 8-3.582032 8-8v-40c0-4.417969-3.582031-8-8-8h-16v-64h16c4.417969 0 8-3.582032 8-8v-32zm72 256v24h-56v-24zm-16-16h-16v-80h16zm-40-96v-24h56v24zm40-40h-16v-64h16zm-40-80v-24h56v24zm-64 256h-80v-160h80zm-184-240h16v64h-16zm40 80v24h-56v-24zm-40 40h16v80h-16zm40 96v24h-56v-24zm0-232h-56v-24h56zm328 320h-448v-8h448zm-432-24v-24h416v24zm416-40h-32v-32c0-4.417969-3.582031-8-8-8h-8v-80h8c4.417969 0 8-3.582032 8-8v-40c0-4.417969-3.582031-8-8-8h-8v-64h8c4.417969 0 8-3.582032 8-8v-32h32zm16-296h-448v-16h448zm-16-40.734375-44.257812-15.265625h44.257812zm0 0" fill="#006d95"/><path d="m240.5 207.996094c17.671875 0 32-14.324219 32-32 0-17.671875-14.328125-32-32-32-17.675781 0-32 14.328125-32 32 0 17.675781 14.324219 32 32 32zm0-48c8.835938 0 16 7.164062 16 16 0 8.835937-7.164062 16-16 16-8.839844 0-16-7.164063-16-16 0-8.835938 7.160156-16 16-16zm0 0" fill="#006d95"/><path d="m224.5 55.996094h32c4.417969 0 8-3.582032 8-8 0-4.417969-3.582031-8-8-8h-32c-4.417969 0-8 3.582031-8 8 0 4.417968 3.582031 8 8 8zm0 0" fill="#006d95"/></svg>